<svg version="1.0" xmlns="http://www.w3.org/2000/svg" class="svg-bin-icon" width="700" height="700" viewBox="0 0 700.000000 700.000000" preserveAspectRatio="xMidYMid meet">
    <g transform="translate(0.000000,700.000000) scale(0.100000,-0.100000)" fill="#000000" stroke="none" class="svg-bin-outline">
        <path d="M3115 6234 c-109 -27 -238 -97 -322 -177 -165 -156 -242 -341 -243
        -584 l0 -73 -895 0 c-730 0 -902 -3 -928 -14 -38 -16 -94 -76 -103 -112 -11
        -44 2 -120 26 -154 44 -62 78 -70 323 -70 209 0 217 -1 217 -20 0 -75 302
        -3632 314 -3695 10 -53 31 -112 62 -175 91 -183 263 -319 469 -370 79 -20 109
        -20 1490 -18 l1410 3 80 27 c214 73 381 234 456 438 16 44 32 106 36 138 3 31
        74 869 157 1862 l151 1805 231 5 231 5 36 28 c106 81 89 233 -33 295 l-44 22
        -897 0 -897 0 -4 133 c-4 107 -10 147 -31 212 -38 114 -90 198 -182 290 -91
        91 -174 144 -290 183 l-80 27 -340 2 c-272 1 -352 -1 -400 -13z m704 -363
        c109 -34 193 -111 238 -220 18 -46 23 -75 23 -159 l0 -102 -582 2 -583 3 1
        100 c1 77 6 113 23 157 40 102 144 196 250 224 31 9 134 13 308 13 229 1 269
        -1 322 -18z m1621 -854 c0 -22 -179 -2181 -265 -3198 -19 -224 -37 -419 -41
        -435 -23 -94 -101 -185 -199 -231 l-60 -28 -1380 0 -1380 0 -61 28 c-75 35
        -145 104 -178 177 -28 63 -15 -84 -211 2235 -63 748 -117 1386 -121 1418 l-6
        57 1951 0 1951 0 0 -23z" />
    </g>

    <path style="fill:#ffc226; stroke:none;" d="M171 398C174.316 440.019 178.964 481.953 181.91 524C183.113 541.155 180.977 565.806 194.174 578.816C210.534 594.945 241.054 589 262 589L436 589C457.538 589 490.829 595.435 506.532 576.961C518.035 563.427 515.914 539.776 517.089 523C519.995 481.545 527 439.568 527 398L171 398z"/>
    <path style="fill:#705511; stroke:none;" d="M527 399L527 406L528 406L527 399M171 402L171 408L172 408L171 402z" />
</svg>
