<svg version="1.0" xmlns="http://www.w3.org/2000/svg" class="svg-bin-icon" width="700" height="700" viewBox="0 0 700.000000 700.000000" preserveAspectRatio="xMidYMid meet">
    <g transform="translate(0.000000,700.000000) scale(0.100000,-0.100000)" fill="#000000" stroke="none" class="svg-bin-outline">
        <path d="M3115 6234 c-109 -27 -238 -97 -322 -177 -165 -156 -242 -341 -243
        -584 l0 -73 -895 0 c-730 0 -902 -3 -928 -14 -38 -16 -94 -76 -103 -112 -11
        -44 2 -120 26 -154 44 -62 78 -70 323 -70 209 0 217 -1 217 -20 0 -75 302
        -3632 314 -3695 10 -53 31 -112 62 -175 91 -183 263 -319 469 -370 79 -20 109
        -20 1490 -18 l1410 3 80 27 c214 73 381 234 456 438 16 44 32 106 36 138 3 31
        74 869 157 1862 l151 1805 231 5 231 5 36 28 c106 81 89 233 -33 295 l-44 22
        -897 0 -897 0 -4 133 c-4 107 -10 147 -31 212 -38 114 -90 198 -182 290 -91
        91 -174 144 -290 183 l-80 27 -340 2 c-272 1 -352 -1 -400 -13z m704 -363
        c109 -34 193 -111 238 -220 18 -46 23 -75 23 -159 l0 -102 -582 2 -583 3 1
        100 c1 77 6 113 23 157 40 102 144 196 250 224 31 9 134 13 308 13 229 1 269
        -1 322 -18z m1621 -854 c0 -22 -179 -2181 -265 -3198 -19 -224 -37 -419 -41
        -435 -23 -94 -101 -185 -199 -231 l-60 -28 -1380 0 -1380 0 -61 28 c-75 35
        -145 104 -178 177 -28 63 -15 -84 -211 2235 -63 748 -117 1386 -121 1418 l-6
        57 1951 0 1951 0 0 -23z"/>
    </g>

    <path style="fill:#2580b4; stroke:none;" d="M183 541C185.393 559.935 186.385 577.961 207 585.931C215.985 589.405 226.532 588 236 588L288 588L422 588C442.362 588 467.187 591.843 487 587.101C509.74 581.659 515.567 561.987 516 541L477 546.996L442 542.039L400 546.985L350 542.179L314 546.911L275 543.004L223 546.985L183 541z" />

    <path style="fill:#000000; stroke:none;" d="M342 337.638C330.408 340.988 324.596 355.616 318.681 365C302.974 389.921 287.602 415.045 271.95 440C265.662 450.026 256.257 463.373 265.419 474.96C274.341 486.243 291.368 483 304 483L384 483C396.538 483 411.974 485.404 424 481.401C434.901 477.773 440.817 465.635 436.096 455C431.417 444.462 423.826 434.817 417.811 425C404.077 402.582 390.041 380.347 376.192 358C368.258 345.197 359.121 332.69 342 337.638z" class="svg-bin-outline" />

    <path style="fill:#ffffff; stroke:none;" d="M347.093 350.758C340.031 353.456 334.946 366.947 331 373C316.892 394.642 303.313 416.859 290 439C286.463 444.882 273.28 459.372 278.18 466.566C282.2 472.469 304.407 469 311 469L386 469C395.048 469 409.55 471.769 417.941 468.258C428.598 463.799 413.775 446.381 410.424 441C395.683 417.331 380.881 393.702 366.192 370C362.7 364.365 355.827 347.421 347.093 350.758z" class="svg-bin-bg" />

    <path style="fill:#000000; stroke:none;" d="M346.109 386.743C341.584 388.662 342.007 393.901 342 398C341.987 405.721 337.27 439.883 352.891 433.257C357.416 431.338 356.993 426.099 357 422C357.013 414.189 361.813 380.083 346.109 386.743z" class="svg-bin-outline" />
    <path style="fill:#000000; stroke:none;" d="M345.148 443.028C337.218 447.721 346.432 458.275 353.772 453.682C361.898 448.597 352.477 438.69 345.148 443.028z" class="svg-bin-outline" />
</svg>
